# xmcd
#
# Track frame offsets:
#	150
#	17044
#	33793
#	47742
#	63996
#	79260
#	91379
#	105513
#	119996
#	134420
#	150425
#	166889
#	178355
#	191294
#	206673
#	221049
#	234027
#	252118
#
# Disc length: 3508 seconds
#
# Revision: 1
# Processed by: cddbd v1.5.2PL0 Copyright (c) Steve Scherf et al.
# Submitted via: audiograbber 1.83.01
#
DISCID=f10db212
DTITLE=ICMAG - ICMAG 2000-10
DYEAR=2000
DGENRE=Country
TTITLE0=Anywhere I Hang My Heart Is Home - Judy Weldon
TTITLE1=Blue Bayou  - Tina Raugh
TTITLE2=Colette  - B. Jeff Stone
TTITLE3=Crying Time  - Victoria Shaw
TTITLE4=Heaven´s Highway  - Larry La Vey
TTITLE5=I Like Being Country  - Wade Sims
TTITLE6=It´s A Though You Never Went Away  - Sal Rainone
TTITLE7=Lonesome Dove  - Pat Roden
TTITLE8=New Genaration  - Loretta Cooper and Iron Horses
TTITLE9=Paper Dolls  - Jenny Jo Perdue
TTITLE10=Please Baby Please  - Billy Keeble
TTITLE11=Rubber Dolly  - Peter Borup
TTITLE12=Shy Little Bayou Love  - Jollie Holliday
TTITLE13=Take It From Me  - Tom Horner
TTITLE14=Tell Me  - John Hartley
TTITLE15=To Good To Be Through - J. L. Caldwell
TTITLE16=Two Tender Seconds - Twango
TTITLE17=Unfit To Be Tied - Andy Martin
EXTD=
EXTT0=
EXTT1=
EXTT2=
EXTT3=
EXTT4=
EXTT5=
EXTT6=
EXTT7=
EXTT8=
EXTT9=
EXTT10=
EXTT11=
EXTT12=
EXTT13=
EXTT14=
EXTT15=
EXTT16=
EXTT17=
PLAYORDER=
